<svg width="150" height="44" viewBox="0 0 150 44" fill="none" xmlns="http://www.w3.org/2000/svg">
<path d="M149.167 38.3359C149.167 40.6452 147.257 42.5157 144.895 42.5157H5.11037C2.74959 42.5157 0.833344 40.6452 0.833344 38.3359V5.00293C0.833344 2.69474 2.74959 0.817627 5.11037 0.817627H144.894C147.257 0.817627 149.166 2.69474 149.166 5.00293L149.167 38.3359Z" fill="black"/>
<path d="M144.444 0.867943C147.017 0.867943 149.11 2.90867 149.11 5.41659V37.9166C149.11 40.4245 147.017 42.4652 144.444 42.4652H5.55556C2.98333 42.4652 0.890277 40.4245 0.890277 37.9166V5.41659C0.890277 2.90867 2.98333 0.867943 5.55556 0.867943H144.444ZM144.444 -7.62939e-05H5.55556C2.50139 -7.62939e-05 0 2.43878 0 5.41659V37.9166C0 40.8944 2.50139 43.3333 5.55556 43.3333H144.444C147.499 43.3333 150 40.8944 150 37.9166V5.41659C150 2.43878 147.499 -7.62939e-05 144.444 -7.62939e-05Z" fill="#A6A6A6"/>
<path d="M33.4756 21.4327C33.4433 17.9411 36.4078 16.2424 36.5433 16.1634C34.8644 13.7768 32.2622 13.4507 31.3478 13.4247C29.1622 13.2004 27.0422 14.6998 25.9289 14.6998C24.7933 14.6998 23.0789 13.4464 21.2311 13.4832C18.8533 13.5189 16.6289 14.8612 15.4089 16.9455C12.8911 21.1954 14.7689 27.4409 17.1811 30.8761C18.3878 32.5585 19.7978 34.437 21.6433 34.3709C23.4489 34.2984 24.1233 33.2486 26.3022 33.2486C28.4611 33.2486 29.0944 34.3709 30.9767 34.3287C32.9144 34.2984 34.1344 32.6387 35.2989 30.9411C36.6933 29.0128 37.2533 27.1137 37.2756 27.0162C37.23 27.001 33.5122 25.6176 33.4756 21.4327Z" fill="white"/>
<path d="M29.92 11.1649C30.8911 9.98077 31.5556 8.36986 31.3711 6.73511C29.9656 6.79577 28.2078 7.68302 27.1956 8.84111C26.3 9.86161 25.5 11.5343 25.7067 13.1073C27.2856 13.2221 28.9067 12.3305 29.92 11.1649Z" fill="white"/>
<path d="M54.5 10.8431C54.5 12.1182 54.1078 13.078 53.3245 13.7226C52.5989 14.3173 51.5678 14.6153 50.2322 14.6153C49.57 14.6153 49.0033 14.5871 48.5289 14.5308V7.56384C49.1478 7.46634 49.8145 7.4165 50.5345 7.4165C51.8067 7.4165 52.7656 7.68625 53.4122 8.22575C54.1367 8.83567 54.5 9.70775 54.5 10.8431ZM53.2722 10.8745C53.2722 10.0479 53.0478 9.41417 52.5989 8.97217C52.15 8.53125 51.4945 8.31025 50.6311 8.31025C50.2645 8.31025 49.9522 8.33409 49.6933 8.38392V13.6803C49.8367 13.702 50.0989 13.7118 50.48 13.7118C51.3711 13.7118 52.0589 13.4702 52.5434 12.987C53.0278 12.5038 53.2722 11.7997 53.2722 10.8745Z" fill="white"/>
<path d="M61.01 11.9567C61.01 12.7421 60.78 13.3856 60.32 13.8905C59.8378 14.4094 59.1989 14.6683 58.4011 14.6683C57.6322 14.6683 57.02 14.4202 56.5633 13.9219C56.1078 13.4246 55.88 12.7974 55.88 12.0412C55.88 11.2504 56.1144 10.6015 56.5856 10.0977C57.0567 9.59397 57.69 9.34155 58.4878 9.34155C59.2567 9.34155 59.8745 9.58964 60.3422 10.0869C60.7867 10.5701 61.01 11.1941 61.01 11.9567ZM59.8022 11.9936C59.8022 11.5223 59.6978 11.1182 59.49 10.7813C59.2456 10.374 58.8978 10.1703 58.4456 10.1703C57.9778 10.1703 57.6222 10.374 57.3778 10.7813C57.1689 11.1182 57.0656 11.5288 57.0656 12.0141C57.0656 12.4854 57.17 12.8895 57.3778 13.2264C57.63 13.6337 57.9811 13.8374 58.4345 13.8374C58.8789 13.8374 59.2278 13.6305 59.4789 13.2156C59.6945 12.8721 59.8022 12.4648 59.8022 11.9936Z" fill="white"/>
<path d="M69.7389 9.44556L68.1 14.5524H67.0334L66.3545 12.3348C66.1822 11.7812 66.0422 11.2309 65.9334 10.6849H65.9122C65.8111 11.2461 65.6711 11.7953 65.4911 12.3348L64.77 14.5524H63.6911L62.15 9.44556H63.3467L63.9389 11.8733C64.0822 12.4475 64.2 12.9946 64.2945 13.5124H64.3156C64.4022 13.0856 64.5456 12.5417 64.7478 11.8841L65.4911 9.44664H66.44L67.1522 11.8321C67.3245 12.4139 67.4645 12.974 67.5722 13.5135H67.6045C67.6834 12.9881 67.8022 12.428 67.96 11.8321L68.5956 9.44664H69.7389V9.44556Z" fill="white"/>
<path d="M75.7755 14.5525H74.6111V11.6275C74.6111 10.7261 74.26 10.2755 73.5555 10.2755C73.21 10.2755 72.9311 10.399 72.7144 10.647C72.5 10.8951 72.3911 11.1876 72.3911 11.5224V14.5514H71.2267V10.9049C71.2267 10.4564 71.2122 9.96996 71.1844 9.44346H72.2078L72.2622 10.2419H72.2944C72.43 9.9938 72.6322 9.78905 72.8978 9.62546C73.2133 9.4348 73.5667 9.33838 73.9533 9.33838C74.4422 9.33838 74.8489 9.49221 75.1722 9.80096C75.5744 10.179 75.7755 10.7435 75.7755 11.4931V14.5525V14.5525Z" fill="white"/>
<path d="M78.9867 14.5524H77.8234V7.10229H78.9867V14.5524Z" fill="white"/>
<path d="M85.8423 11.9567C85.8423 12.7421 85.6123 13.3856 85.1523 13.8905C84.67 14.4094 84.03 14.6683 83.2334 14.6683C82.4634 14.6683 81.8511 14.4202 81.3956 13.9219C80.94 13.4246 80.7122 12.7974 80.7122 12.0412C80.7122 11.2504 80.9467 10.6015 81.4178 10.0977C81.8889 9.59397 82.5223 9.34155 83.3189 9.34155C84.0889 9.34155 84.7056 9.58964 85.1745 10.0869C85.6189 10.5701 85.8423 11.1941 85.8423 11.9567ZM84.6334 11.9936C84.6334 11.5223 84.5289 11.1182 84.3211 10.7813C84.0778 10.374 83.7289 10.1703 83.2778 10.1703C82.8089 10.1703 82.4534 10.374 82.21 10.7813C82.0011 11.1182 81.8978 11.5288 81.8978 12.0141C81.8978 12.4854 82.0022 12.8895 82.21 13.2264C82.4622 13.6337 82.8134 13.8374 83.2667 13.8374C83.7111 13.8374 84.0589 13.6305 84.31 13.2156C84.5267 12.8721 84.6334 12.4648 84.6334 11.9936Z" fill="white"/>
<path d="M91.4778 14.5524H90.4322L90.3456 13.9641H90.3133C89.9556 14.4332 89.4456 14.6683 88.7834 14.6683C88.2889 14.6683 87.8889 14.5134 87.5878 14.2057C87.3145 13.9262 87.1778 13.5785 87.1778 13.1657C87.1778 12.5417 87.4445 12.0661 87.9811 11.7368C88.5167 11.4075 89.27 11.2461 90.24 11.2536V11.1583C90.24 10.4856 89.8778 10.1497 89.1522 10.1497C88.6356 10.1497 88.18 10.2765 87.7867 10.5278L87.55 9.78247C88.0367 9.48889 88.6378 9.34155 89.3467 9.34155C90.7156 9.34155 91.4022 10.0457 91.4022 11.4541V13.3347C91.4022 13.845 91.4278 14.2512 91.4778 14.5524ZM90.2689 12.7974V12.0098C88.9845 11.9881 88.3422 12.3316 88.3422 13.039C88.3422 13.3055 88.4156 13.5048 88.5656 13.6381C88.7156 13.7713 88.9067 13.8374 89.1345 13.8374C89.39 13.8374 89.6289 13.7583 89.8467 13.6012C90.0656 13.4431 90.2 13.2426 90.25 12.9967C90.2622 12.9415 90.2689 12.8743 90.2689 12.7974Z" fill="white"/>
<path d="M98.0945 14.5524H97.0611L97.0067 13.7323H96.9745C96.6445 14.3563 96.0823 14.6683 95.2923 14.6683C94.6611 14.6683 94.1356 14.4267 93.7189 13.9435C93.3023 13.4604 93.0945 12.8331 93.0945 12.0629C93.0945 11.2363 93.32 10.5668 93.7734 10.0555C94.2123 9.57879 94.75 9.34046 95.39 9.34046C96.0934 9.34046 96.5856 9.57121 96.8656 10.0338H96.8878V7.10229H98.0534V13.1765C98.0534 13.6738 98.0667 14.132 98.0945 14.5524ZM96.8878 12.3987V11.5472C96.8878 11.3999 96.8767 11.2807 96.8556 11.1897C96.79 10.9167 96.6489 10.687 96.4345 10.5018C96.2178 10.3165 95.9567 10.2234 95.6556 10.2234C95.2211 10.2234 94.8811 10.3913 94.6311 10.7282C94.3834 11.0651 94.2578 11.4952 94.2578 12.0206C94.2578 12.5255 94.3767 12.935 94.6156 13.2502C94.8678 13.586 95.2078 13.754 95.6334 13.754C96.0156 13.754 96.3211 13.6142 96.5534 13.3336C96.7778 13.0747 96.8878 12.7627 96.8878 12.3987Z" fill="white"/>
<path d="M108.053 11.9567C108.053 12.7421 107.823 13.3856 107.363 13.8905C106.881 14.4094 106.243 14.6683 105.444 14.6683C104.677 14.6683 104.064 14.4202 103.607 13.9219C103.151 13.4246 102.923 12.7974 102.923 12.0412C102.923 11.2504 103.158 10.6015 103.629 10.0977C104.1 9.59397 104.733 9.34155 105.532 9.34155C106.3 9.34155 106.919 9.58964 107.386 10.0869C107.83 10.5701 108.053 11.1941 108.053 11.9567ZM106.847 11.9936C106.847 11.5223 106.742 11.1182 106.534 10.7813C106.289 10.374 105.942 10.1703 105.489 10.1703C105.022 10.1703 104.667 10.374 104.421 10.7813C104.212 11.1182 104.109 11.5288 104.109 12.0141C104.109 12.4854 104.213 12.8895 104.421 13.2264C104.673 13.6337 105.024 13.8374 105.478 13.8374C105.922 13.8374 106.272 13.6305 106.523 13.2156C106.738 12.8721 106.847 12.4648 106.847 11.9936Z" fill="white"/>
<path d="M114.314 14.5525H113.151V11.6275C113.151 10.7261 112.8 10.2755 112.094 10.2755C111.749 10.2755 111.47 10.399 111.254 10.647C111.039 10.8951 110.931 11.1876 110.931 11.5224V14.5514H109.766V10.9049C109.766 10.4564 109.752 9.96996 109.724 9.44346H110.747L110.801 10.2419H110.833C110.97 9.9938 111.172 9.78905 111.437 9.62546C111.753 9.4348 112.106 9.33838 112.493 9.33838C112.981 9.33838 113.388 9.49221 113.711 9.80096C114.114 10.179 114.314 10.7435 114.314 11.4931V14.5525V14.5525Z" fill="white"/>
<path d="M122.151 10.2961H120.869V12.7769C120.869 13.4074 121.097 13.7227 121.548 13.7227C121.757 13.7227 121.93 13.7053 122.067 13.6696L122.097 14.5308C121.867 14.6153 121.564 14.6576 121.192 14.6576C120.732 14.6576 120.374 14.5211 120.116 14.2481C119.856 13.9751 119.727 13.5157 119.727 12.8712V10.2961H118.961V9.44566H119.727V8.50966L120.868 8.17383V9.44458H122.15V10.2961H122.151Z" fill="white"/>
<path d="M128.316 14.5524H127.15V11.649C127.15 10.7336 126.799 10.2754 126.096 10.2754C125.556 10.2754 125.187 10.5408 124.984 11.0716C124.95 11.1832 124.93 11.3197 124.93 11.48V14.5513H123.767V7.10229H124.93V10.18H124.952C125.319 9.61996 125.844 9.34046 126.526 9.34046C127.008 9.34046 127.407 9.49429 127.723 9.80304C128.118 10.1876 128.316 10.7596 128.316 11.5158V14.5524V14.5524Z" fill="white"/>
<path d="M134.674 11.7574C134.674 11.961 134.659 12.1322 134.631 12.272H131.139C131.154 12.7768 131.321 13.1614 131.644 13.4279C131.94 13.6662 132.321 13.7854 132.788 13.7854C133.304 13.7854 133.776 13.7052 134.2 13.5438L134.382 14.3325C133.886 14.5426 133.301 14.6477 132.624 14.6477C131.813 14.6477 131.174 14.4148 130.712 13.949C130.248 13.4831 130.018 12.858 130.018 12.0737C130.018 11.3035 130.232 10.6621 130.664 10.1508C131.116 9.60479 131.726 9.33179 132.496 9.33179C133.249 9.33179 133.821 9.60479 134.208 10.1508C134.52 10.5841 134.674 11.1204 134.674 11.7574ZM133.563 11.4638C133.572 11.1269 133.496 10.8365 133.338 10.5917C133.136 10.2765 132.828 10.1183 132.411 10.1183C132.031 10.1183 131.721 10.2721 131.484 10.5809C131.291 10.8268 131.177 11.1204 131.139 11.4638H133.563Z" fill="white"/>
<path d="M59.6056 34.1292H57.0822L55.7 29.8944H50.8956L49.5789 34.1292H47.1222L51.8822 19.7122H54.8222L59.6056 34.1292ZM55.2833 28.1177L54.0333 24.3532C53.9011 23.9686 53.6533 23.0629 53.2878 21.6372H53.2433C53.0978 22.2504 52.8633 23.1561 52.5411 24.3532L51.3133 28.1177H55.2833V28.1177Z" fill="white"/>
<path d="M71.8467 28.8037C71.8467 30.5717 71.3567 31.9692 70.3767 32.9951C69.4989 33.9083 68.4089 34.3644 67.1078 34.3644C65.7033 34.3644 64.6944 33.8726 64.08 32.8889H64.0356V38.3652H61.6667V27.1559C61.6667 26.0444 61.6367 24.9037 61.5789 23.7337H63.6622L63.7944 25.3814H63.8389C64.6289 24.1399 65.8278 23.5203 67.4367 23.5203C68.6944 23.5203 69.7444 24.0045 70.5844 24.9741C71.4267 25.9448 71.8467 27.2209 71.8467 28.8037ZM69.4333 28.8882C69.4333 27.8763 69.2 27.0422 68.7311 26.3857C68.2189 25.701 67.5311 25.3587 66.6689 25.3587C66.0844 25.3587 65.5533 25.5493 65.0789 25.9253C64.6033 26.3044 64.2922 26.7995 64.1467 27.4127C64.0733 27.6987 64.0367 27.9327 64.0367 28.1168V29.8502C64.0367 30.6063 64.2744 31.2444 64.75 31.7655C65.2256 32.2866 65.8433 32.5466 66.6033 32.5466C67.4956 32.5466 68.19 32.2108 68.6867 31.5413C69.1844 30.8707 69.4333 29.9867 69.4333 28.8882Z" fill="white"/>
<path d="M84.11 28.8037C84.11 30.5717 83.62 31.9692 82.6389 32.9951C81.7622 33.9083 80.6722 34.3644 79.3711 34.3644C77.9667 34.3644 76.9578 33.8726 76.3444 32.8889H76.3V38.3652H73.9311V27.1559C73.9311 26.0444 73.9011 24.9037 73.8433 23.7337H75.9267L76.0589 25.3814H76.1033C76.8922 24.1399 78.0911 23.5203 79.7011 23.5203C80.9578 23.5203 82.0078 24.0045 82.85 24.9741C83.6889 25.9448 84.11 27.2209 84.11 28.8037ZM81.6967 28.8882C81.6967 27.8763 81.4622 27.0422 80.9933 26.3857C80.4811 25.701 79.7956 25.3587 78.9322 25.3587C78.3467 25.3587 77.8167 25.5493 77.3411 25.9253C76.8655 26.3044 76.5555 26.7995 76.41 27.4127C76.3378 27.6987 76.3 27.9327 76.3 28.1168V29.8502C76.3 30.6063 76.5378 31.2444 77.0111 31.7655C77.4867 32.2855 78.1044 32.5466 78.8667 32.5466C79.7589 32.5466 80.4533 32.2108 80.95 31.5413C81.4478 30.8707 81.6967 29.9867 81.6967 28.8882Z" fill="white"/>
<path d="M97.8211 30.0862C97.8211 31.3126 97.3844 32.3103 96.5078 33.0806C95.5444 33.9223 94.2033 34.3426 92.48 34.3426C90.8889 34.3426 89.6133 34.0436 88.6478 33.4446L89.1967 31.5195C90.2367 32.1326 91.3778 32.4403 92.6211 32.4403C93.5133 32.4403 94.2078 32.2431 94.7067 31.851C95.2033 31.4588 95.4511 30.9323 95.4511 30.2758C95.4511 29.6908 95.2467 29.1979 94.8367 28.7981C94.4289 28.3984 93.7478 28.0268 92.7967 27.6834C90.2078 26.742 88.9145 25.3629 88.9145 23.5494C88.9145 22.3642 89.3678 21.3925 90.2756 20.6363C91.18 19.8791 92.3867 19.501 93.8956 19.501C95.2411 19.501 96.3589 19.7296 97.2511 20.1856L96.6589 22.0685C95.8256 21.6265 94.8833 21.4055 93.8289 21.4055C92.9956 21.4055 92.3445 21.6059 91.8778 22.0046C91.4833 22.361 91.2856 22.7954 91.2856 23.31C91.2856 23.8798 91.5111 24.3511 91.9644 24.7216C92.3589 25.0639 93.0756 25.4344 94.1156 25.8341C95.3878 26.3336 96.3222 26.9175 96.9233 27.587C97.5222 28.2543 97.8211 29.0896 97.8211 30.0862Z" fill="white"/>
<path d="M105.653 25.4669H103.042V30.5141C103.042 31.7979 103.502 32.4392 104.424 32.4392C104.848 32.4392 105.199 32.4035 105.477 32.332L105.542 34.0859C105.076 34.256 104.461 34.3416 103.7 34.3416C102.764 34.3416 102.033 34.0631 101.506 33.5074C100.98 32.9506 100.716 32.0167 100.716 30.7048V25.4647H99.16V23.7314H100.716V21.828L103.042 21.1433V23.7314H105.653V25.4669Z" fill="white"/>
<path d="M117.434 28.8458C117.434 30.4437 116.966 31.7557 116.03 32.7816C115.049 33.8378 113.747 34.3643 112.123 34.3643C110.559 34.3643 109.313 33.8584 108.384 32.8466C107.456 31.8347 106.991 30.5575 106.991 29.0181C106.991 27.4072 107.469 26.0877 108.428 25.0617C109.384 24.0347 110.676 23.5212 112.299 23.5212C113.863 23.5212 115.122 24.0272 116.072 25.0401C116.981 26.0227 117.434 27.2912 117.434 28.8458ZM114.977 28.9206C114.977 27.9618 114.767 27.1396 114.341 26.4538C113.844 25.624 113.134 25.2102 112.214 25.2102C111.262 25.2102 110.539 25.6251 110.042 26.4538C109.617 27.1407 109.407 27.9759 109.407 28.9639C109.407 29.9227 109.617 30.7449 110.042 31.4296C110.554 32.2594 111.27 32.6732 112.193 32.6732C113.098 32.6732 113.808 32.2507 114.32 31.4079C114.757 30.7092 114.977 29.8782 114.977 28.9206Z" fill="white"/>
<path d="M125.134 25.7649C124.9 25.7227 124.65 25.701 124.388 25.701C123.554 25.701 122.91 26.0076 122.457 26.6218C122.062 27.1635 121.864 27.8482 121.864 28.6748V34.1293H119.497L119.519 27.0075C119.519 25.8093 119.489 24.7184 119.43 23.7348H121.493L121.58 25.7238H121.646C121.896 25.0402 122.29 24.4898 122.83 24.0771C123.358 23.7055 123.928 23.5203 124.542 23.5203C124.761 23.5203 124.959 23.5354 125.134 23.5625V25.7649Z" fill="white"/>
<path d="M135.729 28.4396C135.729 28.8535 135.701 29.2023 135.642 29.4872H128.536C128.563 30.5142 128.907 31.2996 129.567 31.8413C130.166 32.3256 130.94 32.5682 131.891 32.5682C132.943 32.5682 133.903 32.4046 134.767 32.0764L135.138 33.6797C134.129 34.1087 132.938 34.3221 131.563 34.3221C129.91 34.3221 128.612 33.8476 127.668 32.8997C126.726 31.9518 126.253 30.6789 126.253 29.0821C126.253 27.5145 126.692 26.2091 127.571 25.168C128.491 24.0565 129.734 23.5007 131.299 23.5007C132.836 23.5007 133.999 24.0565 134.789 25.168C135.414 26.0509 135.729 27.1429 135.729 28.4396ZM133.47 27.8406C133.486 27.1559 133.331 26.5644 133.01 26.065C132.6 25.4226 131.97 25.1019 131.122 25.1019C130.348 25.1019 129.718 25.415 129.237 26.0433C128.842 26.5427 128.608 27.1418 128.536 27.8395H133.47V27.8406Z" fill="white"/>
</svg>
