<svg width="150" height="44" viewBox="0 0 150 44" fill="none" xmlns="http://www.w3.org/2000/svg">
<path d="M144.444 43.3335H5.55556C2.50139 43.3335 0 40.8946 0 37.9168V5.41683C0 2.43902 2.50139 0.000165939 5.55556 0.000165939H144.444C147.499 0.000165939 150 2.43902 150 5.41683V37.9168C150 40.8946 147.499 43.3335 144.444 43.3335Z" fill="black"/>
<path d="M144.444 0.868186C147.017 0.868186 149.11 2.90892 149.11 5.41683V37.9168C149.11 40.4247 147.017 42.4655 144.444 42.4655H5.55556C2.98333 42.4655 0.890277 40.4247 0.890277 37.9168V5.41683C0.890277 2.90892 2.98333 0.868186 5.55556 0.868186H144.444ZM144.444 0.000165939H5.55556C2.50139 0.000165939 0 2.43902 0 5.41683V37.9168C0 40.8946 2.50139 43.3335 5.55556 43.3335H144.444C147.499 43.3335 150 40.8946 150 37.9168V5.41683C150 2.43902 147.499 0.000165939 144.444 0.000165939Z" fill="#A6A6A6"/>
<path d="M11.5944 8.1672C11.2681 8.50033 11.0792 9.01897 11.0792 9.69064V33.6486C11.0792 34.3202 11.2681 34.8389 11.5944 35.172L11.675 35.2451L25.4444 21.8253V21.5085L11.675 8.08866L11.5944 8.1672Z" fill="url(#paint0_linear_54_284)"/>
<path d="M30.0291 26.3008L25.4444 21.8253V21.5084L30.0347 17.0329L30.1375 17.0911L35.5736 20.1068C37.1249 20.9627 37.1249 22.371 35.5736 23.2322L30.1375 26.2426L30.0291 26.3008Z" fill="url(#paint1_linear_54_284)"/>
<path d="M30.1375 26.2426L25.4444 21.6669L11.5944 35.172C12.1097 35.7001 12.95 35.7637 13.9055 35.2356L30.1375 26.2426Z" fill="url(#paint2_linear_54_284)"/>
<path d="M30.1375 17.091L13.9055 8.098C12.95 7.57529 12.1097 7.63894 11.5944 8.16706L25.4444 21.6667L30.1375 17.091Z" fill="url(#paint3_linear_54_284)"/>
<path d="M52.6861 11.0976C52.6861 12.0022 52.4083 12.7266 51.8611 13.2669C51.2319 13.9075 50.4125 14.2298 49.4083 14.2298C48.4486 14.2298 47.6291 13.902 46.9569 13.2561C46.2833 12.6007 45.9472 11.7963 45.9472 10.8335C45.9472 9.87069 46.2833 9.06632 46.9569 8.41632C47.6291 7.76496 48.4486 7.43726 49.4083 7.43726C49.8861 7.43726 50.3416 7.5334 50.7764 7.71215C51.2097 7.89226 51.5625 8.13601 51.818 8.43663L51.2375 9.00809C50.7916 8.49486 50.1847 8.24163 49.4083 8.24163C48.7083 8.24163 48.1014 8.47996 47.5861 8.96069C47.0764 9.44278 46.8208 10.067 46.8208 10.8335C46.8208 11.6 47.0764 12.2296 47.5861 12.7117C48.1014 13.187 48.7083 13.4308 49.4083 13.4308C50.1514 13.4308 50.7764 13.187 51.2694 12.7063C51.5944 12.3881 51.7792 11.9493 51.8278 11.3887H49.4083V10.606H52.6361C52.675 10.7753 52.6861 10.9391 52.6861 11.0976Z" fill="white" stroke="white" stroke-width="0.16" stroke-miterlimit="10"/>
<path d="M57.8069 8.38379H54.775V10.4421H57.5083V11.2248H54.775V13.2832H57.8069V14.0808H53.9167V7.58618H57.8069V8.38379Z" fill="white" stroke="white" stroke-width="0.16" stroke-miterlimit="10"/>
<path d="M61.4208 14.0808H60.5624V8.38379H58.7027V7.58618H63.2819V8.38379H61.4208V14.0808Z" fill="white" stroke="white" stroke-width="0.16" stroke-miterlimit="10"/>
<path d="M66.5958 14.0808V7.58618H67.4528V14.0808H66.5958Z" fill="white" stroke="white" stroke-width="0.16" stroke-miterlimit="10"/>
<path d="M71.2513 14.0808H70.4V8.38379H68.5333V7.58618H73.118V8.38379H71.2513V14.0808Z" fill="white" stroke="white" stroke-width="0.16" stroke-miterlimit="10"/>
<path d="M81.7875 13.2453C81.1305 13.902 80.3166 14.2298 79.3458 14.2298C78.3694 14.2298 77.5555 13.902 76.8986 13.2453C76.243 12.5899 75.9166 11.7855 75.9166 10.8335C75.9166 9.88153 76.243 9.07715 76.8986 8.42174C77.5555 7.76496 78.3694 7.43726 79.3458 7.43726C80.3111 7.43726 81.125 7.76496 81.7819 8.42715C82.443 9.08798 82.7694 9.88694 82.7694 10.8335C82.7694 11.7855 82.443 12.5899 81.7875 13.2453ZM77.5333 12.7009C78.0277 13.187 78.6291 13.4308 79.3458 13.4308C80.0569 13.4308 80.6639 13.187 81.1527 12.7009C81.6458 12.2148 81.8958 11.5905 81.8958 10.8335C81.8958 10.0765 81.6458 9.45226 81.1527 8.96611C80.6639 8.47996 80.0569 8.23621 79.3458 8.23621C78.6291 8.23621 78.0277 8.47996 77.5333 8.96611C77.0402 9.45226 76.7902 10.0765 76.7902 10.8335C76.7902 11.5905 77.0402 12.2148 77.5333 12.7009Z" fill="white" stroke="white" stroke-width="0.16" stroke-miterlimit="10"/>
<path d="M83.9736 14.0808V7.58618H85.0152L88.2541 12.6372H88.2916L88.2541 11.3887V7.58618H89.1111V14.0808H88.2166L84.825 8.78056H84.7875L84.825 10.0345V14.0808H83.9736Z" fill="white" stroke="white" stroke-width="0.16" stroke-miterlimit="10"/>
<path d="M75.7055 23.5654C73.0958 23.5654 70.9639 25.5019 70.9639 28.1736C70.9639 30.8237 73.0958 32.7805 75.7055 32.7805C78.3208 32.7805 80.4528 30.8237 80.4528 28.1736C80.4528 25.5019 78.3208 23.5654 75.7055 23.5654ZM75.7055 30.9659C74.2736 30.9659 73.0417 29.8135 73.0417 28.1736C73.0417 26.5121 74.2736 25.38 75.7055 25.38C77.1375 25.38 78.375 26.5121 78.375 28.1736C78.375 29.8135 77.1375 30.9659 75.7055 30.9659ZM65.3597 23.5654C62.7444 23.5654 60.6181 25.5019 60.6181 28.1736C60.6181 30.8237 62.7444 32.7805 65.3597 32.7805C67.9736 32.7805 70.1014 30.8237 70.1014 28.1736C70.1014 25.5019 67.9736 23.5654 65.3597 23.5654ZM65.3597 30.9659C63.9264 30.9659 62.6903 29.8135 62.6903 28.1736C62.6903 26.5121 63.9264 25.38 65.3597 25.38C66.7917 25.38 68.0236 26.5121 68.0236 28.1736C68.0236 29.8135 66.7917 30.9659 65.3597 30.9659ZM53.0486 24.9778V26.9359H57.8444C57.7042 28.0301 57.3292 28.8345 56.7542 29.3951C56.0542 30.0722 54.9639 30.8237 53.0486 30.8237C50.0972 30.8237 47.7861 28.5013 47.7861 25.6237C47.7861 22.7461 50.0972 20.4237 53.0486 20.4237C54.6444 20.4237 55.8056 21.0318 56.6625 21.8199L58.0778 20.44C56.8792 19.3242 55.2847 18.467 53.0486 18.467C49.0014 18.467 45.6 21.6777 45.6 25.6237C45.6 29.5698 49.0014 32.7805 53.0486 32.7805C55.2361 32.7805 56.8792 32.0818 58.1708 30.7709C59.4944 29.4804 59.9069 27.6658 59.9069 26.2006C59.9069 25.7456 59.8681 25.3272 59.7986 24.9778H53.0486ZM103.39 26.4958C103 25.4653 101.796 23.5654 99.343 23.5654C96.9125 23.5654 94.8889 25.4328 94.8889 28.1736C94.8889 30.7547 96.8917 32.7805 99.5764 32.7805C101.747 32.7805 103 31.49 103.515 30.7384L101.904 29.6916C101.367 30.4581 100.635 30.9659 99.5764 30.9659C98.525 30.9659 97.7708 30.496 97.2875 29.5698L103.608 27.0199L103.39 26.4958ZM96.9458 28.0301C96.8917 26.2534 98.3611 25.3434 99.4139 25.3434C100.239 25.3434 100.939 25.7456 101.172 26.3211L96.9458 28.0301ZM91.8083 32.5002H93.8861V18.9585H91.8083V32.5002ZM88.4055 24.5919H88.3361C87.8694 24.0529 86.9792 23.5654 85.8514 23.5654C83.4847 23.5654 81.3208 25.5912 81.3208 28.1885C81.3208 30.7709 83.4847 32.7805 85.8514 32.7805C86.9792 32.7805 87.8694 32.2889 88.3361 31.7337H88.4055V32.3946C88.4055 34.1563 87.4403 35.1029 85.8833 35.1029C84.6139 35.1029 83.8264 34.2091 83.5014 33.4576L81.6944 34.1929C82.2153 35.4144 83.5944 36.9175 85.8833 36.9175C88.3194 36.9175 90.375 35.52 90.375 32.1197V23.8457H88.4055V24.5919ZM86.0292 30.9659C84.5972 30.9659 83.3986 29.7973 83.3986 28.1885C83.3986 26.5649 84.5972 25.38 86.0292 25.38C87.4403 25.38 88.5528 26.5649 88.5528 28.1885C88.5528 29.7973 87.4403 30.9659 86.0292 30.9659ZM113.118 18.9585H108.149V32.5002H110.221V27.3693H113.118C115.419 27.3693 117.676 25.7456 117.676 23.1632C117.676 20.5822 115.414 18.9585 113.118 18.9585ZM113.172 25.4856H110.221V20.8422H113.172C114.719 20.8422 115.603 22.0948 115.603 23.1632C115.603 24.2113 114.719 25.4856 113.172 25.4856ZM125.982 23.5397C124.485 23.5397 122.928 24.1843 122.287 25.6129L124.126 26.3645C124.522 25.6129 125.25 25.3691 126.019 25.3691C127.094 25.3691 128.185 25.9988 128.201 27.1106V27.2528C127.826 27.0415 127.024 26.7287 126.036 26.7287C124.056 26.7287 122.037 27.7918 122.037 29.7756C122.037 31.5902 123.66 32.7588 125.483 32.7588C126.878 32.7588 127.647 32.1454 128.131 31.4318H128.201V32.4785H130.203V27.2839C130.203 24.883 128.364 23.5397 125.982 23.5397ZM125.732 30.9605C125.054 30.9605 124.11 30.6328 124.11 29.8135C124.11 28.7654 125.287 28.3632 126.307 28.3632C127.219 28.3632 127.647 28.5596 128.201 28.8182C128.039 30.0722 126.932 30.9605 125.732 30.9605ZM137.494 23.8362L135.112 29.7065H135.042L132.579 23.8362H130.344L134.044 32.0398L131.933 36.6047H134.099L139.8 23.8362H137.494ZM118.815 32.5002H120.893V18.9585H118.815V32.5002Z" fill="white"/>
<defs>
<linearGradient id="paint0_linear_54_284" x1="24.2219" y1="33.898" x2="6.04677" y2="15.2569" gradientUnits="userSpaceOnUse">
<stop stop-color="#00A0FF"/>
<stop offset="0.0066" stop-color="#00A1FF"/>
<stop offset="0.2601" stop-color="#00BEFF"/>
<stop offset="0.5122" stop-color="#00D2FF"/>
<stop offset="0.7604" stop-color="#00DFFF"/>
<stop offset="1" stop-color="#00E3FF"/>
</linearGradient>
<linearGradient id="paint1_linear_54_284" x1="37.5937" y1="21.6653" x2="10.7083" y2="21.6653" gradientUnits="userSpaceOnUse">
<stop stop-color="#FFE000"/>
<stop offset="0.4087" stop-color="#FFBD00"/>
<stop offset="0.7754" stop-color="#FFA500"/>
<stop offset="1" stop-color="#FF9C00"/>
</linearGradient>
<linearGradient id="paint2_linear_54_284" x1="27.5855" y1="19.1794" x2="2.93861" y2="-6.09947" gradientUnits="userSpaceOnUse">
<stop stop-color="#FF3A44"/>
<stop offset="1" stop-color="#C31162"/>
</linearGradient>
<linearGradient id="paint3_linear_54_284" x1="8.10809" y1="43.1425" x2="19.114" y2="31.8545" gradientUnits="userSpaceOnUse">
<stop stop-color="#32A071"/>
<stop offset="0.0685" stop-color="#2DA771"/>
<stop offset="0.4762" stop-color="#15CF74"/>
<stop offset="0.8009" stop-color="#06E775"/>
<stop offset="1" stop-color="#00F076"/>
</linearGradient>
</defs>
</svg>
