<svg width="30" height="30" viewBox="0 0 30 30" fill="none" xmlns="http://www.w3.org/2000/svg">
<path d="M30 15C30 6.71572 23.2843 1.90735e-06 15 1.90735e-06C6.71572 1.90735e-06 0 6.71572 0 15C0 22.4869 5.48528 28.6925 12.6562 29.8178V19.3359H8.84766V15H12.6562V11.6953C12.6562 7.93594 14.8956 5.85938 18.322 5.85938C19.9631 5.85938 21.6797 6.15235 21.6797 6.15235V9.84375H19.7882C17.9249 9.84375 17.3438 11 17.3438 12.1862V15H21.5039L20.8389 19.3359H17.3438V29.8178C24.5147 28.6925 30 22.4869 30 15Z" fill="white"/>
</svg>
