<svg width="30" height="30" viewBox="0 0 30 30" fill="none" xmlns="http://www.w3.org/2000/svg">
<rect width="29" height="29" transform="translate(0 0.81778)" fill="white"/>
<path fill-rule="evenodd" clip-rule="evenodd" d="M29.94 15.636C29.94 14.6432 29.8509 13.6887 29.6855 12.7723H16.5V18.1878H24.0345C23.71 19.9378 22.7236 21.4205 21.2409 22.4132V25.926H25.7655C28.4127 23.4887 29.94 19.8996 29.94 15.636Z" fill="#4285F4"/>
<path fill-rule="evenodd" clip-rule="evenodd" d="M16.5002 29.3176C20.2802 29.3176 23.4493 28.064 25.7656 25.9258L21.2411 22.4131C19.9874 23.2531 18.3838 23.7494 16.5002 23.7494C12.8538 23.7494 9.76744 21.2867 8.66653 17.9776H3.98926V21.6049C6.29289 26.1803 11.0274 29.3176 16.5002 29.3176Z" fill="#34A853"/>
<path fill-rule="evenodd" clip-rule="evenodd" d="M8.66636 17.9778C8.38636 17.1378 8.22727 16.2405 8.22727 15.3178C8.22727 14.3951 8.38636 13.4978 8.66636 12.6578V9.03055H3.98909C3.04091 10.9205 2.5 13.0587 2.5 15.3178C2.5 17.5769 3.04091 19.7151 3.98909 21.6051L8.66636 17.9778Z" fill="#FBBC05"/>
<path fill-rule="evenodd" clip-rule="evenodd" d="M16.5002 6.88596C18.5556 6.88596 20.4011 7.59232 21.852 8.9796L25.8674 4.96414C23.4429 2.70505 20.2738 1.31778 16.5002 1.31778C11.0274 1.31778 6.29289 4.45505 3.98926 9.03051L8.66653 12.6578C9.76744 9.34869 12.8538 6.88596 16.5002 6.88596Z" fill="#EA4335"/>
</svg>
